<svg xmlns="http://www.w3.org/2000/svg" fill="currentColor" viewBox="0 0 16 14" class="text-primary size-8"><path d="M3.104 6.757.471 5.99c-.461-.135-.461-.83 0-.964l6.407-1.87a4 4 0 0 1 2.244 0l6.407 1.87c.461.135.461.83 0 .964l-2.633.768-3.65-1.065a4.44 4.44 0 0 0-2.492 0z" opacity="0.8"></path><path d="M3.104 9.742.471 8.974c-.461-.135-.461-.83 0-.964l6.407-1.87a4 4 0 0 1 2.244 0l6.407 1.87c.461.135.461.83 0 .964l-2.633.768-3.65-1.065a4.44 4.44 0 0 0-2.492 0z" opacity="0.9"></path><path d="M3.104 3.774.471 3.005c-.461-.134-.461-.829 0-.963L6.878.172a4 4 0 0 1 2.244 0l6.407 1.87c.461.134.461.829 0 .963l-2.633.769-3.65-1.065a4.44 4.44 0 0 0-2.492 0z" opacity="0.7"></path><path d="m.47 11.959 6.408 1.87c.734.214 1.51.214 2.244 0l6.407-1.87c.461-.135.461-.83 0-.964l-6.407-1.87a4 4 0 0 0-2.244 0l-6.407 1.87c-.461.135-.461.83 0 .964"></path></svg>